<?xml version="1.0" encoding="utf-8"?>
<!-- Generator: Adobe Illustrator 16.0.0, SVG Export Plug-In . SVG Version: 6.00 Build 0)  -->
<!DOCTYPE svg PUBLIC "-//W3C//DTD SVG 1.1//EN" "http://www.w3.org/Graphics/SVG/1.1/DTD/svg11.dtd">
<svg version="1.1" id="Layer_1" xmlns="http://www.w3.org/2000/svg" xmlns:xlink="http://www.w3.org/1999/xlink" x="0px" y="0px"
	 width="895.198px" height="430.579px" viewBox="0 0 895.198 430.579" enable-background="new 0 0 895.198 430.579"
	 xml:space="preserve">
<g>
	<path fill="#491D00" d="M449.926,243.384c0-9.219-10.678-15.834-32.032-19.838h-0.364c-9.464-1.82-17.654-4.368-24.57-7.645
		c-6.916-3.275-11.983-7.49-15.197-12.648c-3.216-5.156-4.823-10.465-4.823-15.925c0-10.556,4.641-19.229,13.923-26.026
		c9.282-6.793,19.989-10.192,32.123-10.192c5.338,0,10.798,0.91,16.38,2.73c5.58,1.82,9.737,3.521,12.467,5.096
		c2.73,1.578,6.339,3.822,10.829,6.734c2.062,1.456,3.367,3.458,3.913,6.006c0.546,2.548,0.12,4.886-1.274,7.007
		c-1.396,2.124-3.367,3.458-5.915,4.004c-2.548,0.546-4.914,0.091-7.098-1.365c-5.705-3.882-10.77-6.793-15.197-8.736
		c-4.431-1.939-9.131-2.912-14.105-2.912c-8.008,0-14.56,1.883-19.656,5.642c-5.096,3.762-7.644,7.766-7.644,12.012
		c0,2.064,0.483,3.822,1.456,5.278c3.396,5.582,12.558,9.768,27.482,12.558h0.364c10.192,2.064,18.564,4.612,25.116,7.644
		c15.043,7.402,22.568,17.595,22.568,30.576c0,11.284-4.977,20.537-14.924,27.755c-9.95,7.221-21.417,10.829-34.398,10.829
		c-15.897-0.119-31.426-6.188-46.592-18.199c-1.942-1.576-3.065-3.7-3.367-6.371c-0.305-2.667,0.333-4.973,1.911-6.916
		c1.576-1.939,3.7-3.062,6.37-3.367c2.667-0.301,4.974,0.396,6.916,2.094c11.648,9.464,23.233,14.137,34.762,14.014
		c9.1,0,16.471-2.093,22.113-6.279C447.105,252.757,449.926,248.238,449.926,243.384z"/>
	<path fill="#491D00" d="M566.951,166.216c7.645,7.644,11.467,16.835,11.467,27.573c0,10.738-3.822,19.9-11.467,27.481
		c-7.645,7.584-16.867,11.375-27.664,11.375H516.9v39.494c0,2.793-1,5.158-3.002,7.098c-2.002,1.943-4.4,2.912-7.189,2.912
		c-2.793,0-5.158-0.969-7.098-2.912c-1.943-1.939-2.912-4.305-2.912-7.098V164.76c0-2.79,0.969-5.156,2.912-7.098
		c1.939-1.939,4.305-2.912,7.098-2.912h32.578C550.084,154.75,559.307,158.572,566.951,166.216z M516.9,174.952v37.493h22.387
		c5.215,0,9.646-1.82,13.285-5.46c3.641-3.64,5.52-8.008,5.643-13.104c-0.123-5.338-2.002-9.828-5.643-13.468
		c-3.639-3.64-8.07-5.46-13.285-5.46H516.9z"/>
	<path fill="#491D00" d="M604.078,164.76c0-2.79,0.969-5.156,2.912-7.098c1.939-1.939,4.305-2.912,7.098-2.912
		c2.789,0,5.188,0.973,7.189,2.912c2.002,1.942,3.002,4.308,3.002,7.098v107.38c0,2.793-1,5.158-3.002,7.098
		c-2.002,1.943-4.4,2.912-7.189,2.912c-2.793,0-5.158-0.969-7.098-2.912c-1.943-1.939-2.912-4.305-2.912-7.098V164.76z"/>
	<path fill="#491D00" d="M675.42,279.237c-1.941,1.943-4.309,2.912-7.098,2.912c-2.793,0-5.158-0.969-7.098-2.912
		c-1.943-1.939-2.912-4.305-2.912-7.098V165.67c0-2.667,0.969-5.005,2.912-7.007c1.939-2.002,4.305-3.003,7.098-3.003
		c2.789,0,5.156,1.001,7.098,3.003c1.939,2.002,2.912,4.339,2.912,7.007v52.233l58.969-59.149c1.939-1.939,4.305-2.912,7.098-2.912
		c2.789,0,5.156,0.973,7.098,2.912c1.939,1.942,2.912,4.308,2.912,7.098c0,2.792-0.973,5.158-2.912,7.098l-40.039,39.858
		l40.402,52.963c2.791,3.275,3.186,6.824,1.184,10.646s-4.732,5.732-8.189,5.732c-3.459,0-6.219-1.211-8.281-3.64l-39.312-51.506
		l-18.928,19.292v25.844C678.332,274.933,677.359,277.298,675.42,279.237z"/>
	<path fill="#491D00" d="M798.451,282.149c-2.793,0-5.158-0.969-7.098-2.912c-1.943-1.939-2.912-4.305-2.912-7.098V164.76
		c0-2.79,0.969-5.156,2.912-7.098c1.939-1.939,4.305-2.912,7.098-2.912h59.514c2.668,0,5.006,0.973,7.008,2.912
		c2.002,1.942,3.002,4.308,3.002,7.098c0,2.792-1,5.187-3.002,7.189s-4.34,3.003-7.008,3.003h-49.322v33.306h42.406
		c2.668,0,5.006,1.001,7.008,3.003s3.002,4.368,3.002,7.098c0,2.73-0.973,5.097-2.912,7.099c-1.941,2.002-4.307,3.003-7.098,3.003
		h-42.406v33.488h49.322c2.668,0,5.006,1,7.008,3.002c2.002,2.003,3.002,4.369,3.002,7.099s-1,5.097-3.002,7.099
		s-4.34,3.002-7.008,3.002h-58.967l-0.365-0.182L798.451,282.149z"/>
</g>
<g>
	<path fill="#491D00" d="M390.082,333.831l-5.824-0.16c-0.491,0-0.736-0.096-0.736-0.287c0-0.234,0.234-0.438,0.704-0.609
		c0.469-0.17,0.704-0.361,0.704-0.574c0-0.107-0.075-0.256-0.224-0.449l-4.032-4.639c-0.043-0.064-0.107-0.08-0.192-0.049
		c-0.085,0.031-0.133,0.182-0.144,0.447c-0.011,0.268-0.016,0.893-0.016,1.873s0.01,1.717,0.032,2.207c0,0.662,0.373,1.1,1.12,1.312
		c0.49,0.172,0.736,0.357,0.736,0.561s-0.246,0.303-0.736,0.303l-2.24-0.16l-2.496,0.16c-0.491,0-0.736-0.1-0.736-0.303
		s0.192-0.369,0.576-0.496c0.384-0.129,0.65-0.234,0.8-0.32c0.491-0.213,0.736-0.564,0.736-1.057V315.56
		c0-0.746-0.112-1.297-0.336-1.648c-0.224-0.352-0.603-0.58-1.136-0.688c-0.171-0.043-0.256-0.176-0.256-0.4s0.074-0.357,0.224-0.4
		c0.64-0.148,1.898-0.576,3.776-1.279h0.032l0.032-0.031c0.128,0,0.192,0.068,0.192,0.207s-0.021,0.379-0.064,0.721
		c-0.149,1.195-0.224,2.41-0.224,3.646v10.594c0,0.191,0.064,0.266,0.192,0.223c0.299-0.064,0.672-0.287,1.12-0.672
		c1.92-1.686,3.136-2.891,3.648-3.615c0.021-0.021,0.032-0.053,0.032-0.096c0-0.234-0.278-0.416-0.832-0.545
		c-0.256-0.084-0.384-0.17-0.384-0.256c0-0.299,0.235-0.447,0.704-0.447h1.568c0.448,0,1.056-0.064,1.824-0.193
		c0.768-0.127,1.184-0.191,1.248-0.191c0.17,0,0.256,0.07,0.256,0.209s-0.069,0.277-0.208,0.416
		c-0.139,0.139-0.283,0.229-0.432,0.271c-0.619,0.127-1.27,0.4-1.952,0.816c-0.683,0.416-2.144,1.605-4.384,3.566
		c-0.235,0.193-0.267,0.375-0.096,0.545c0.768,0.918,1.648,1.914,2.64,2.992c0.992,1.078,1.68,1.787,2.064,2.127
		c0.768,0.727,1.643,1.238,2.624,1.537c0.491,0.17,0.736,0.357,0.736,0.561C390.722,333.729,390.508,333.831,390.082,333.831z"/>
	<path fill="#491D00" d="M399.138,320.423c1.28,0,2.288,0.268,3.024,0.801s1.104,1.258,1.104,2.176s-0.229,1.488-0.688,1.713
		c-0.459,0.223-1.051,0.336-1.776,0.336h-5.248c-0.299,0-0.507,0.068-0.624,0.207c-0.118,0.139-0.176,0.465-0.176,0.977
		c0,1.492,0.458,2.795,1.376,3.904c0.917,1.109,2.042,1.664,3.376,1.664c1.333,0,2.363-0.471,3.088-1.408
		c0.149-0.15,0.266-0.225,0.352-0.225c0.234,0,0.277,0.277,0.128,0.832c-0.15,0.555-0.678,1.146-1.584,1.775
		c-0.907,0.629-2.064,0.945-3.472,0.945s-2.635-0.641-3.68-1.92c-1.045-1.281-1.568-2.896-1.568-4.85
		c0-1.951,0.613-3.594,1.84-4.928C395.836,321.091,397.346,320.423,399.138,320.423z M401.25,323.384c0-0.586-0.267-1.061-0.8-1.424
		c-0.534-0.363-1.179-0.545-1.936-0.545c-0.758,0-1.472,0.305-2.144,0.912s-1.008,1.158-1.008,1.648c0,0.32,0.203,0.48,0.608,0.48
		h2.624c1.002,0,1.781-0.053,2.336-0.16C401.143,324.274,401.25,323.97,401.25,323.384z"/>
	<path fill="#491D00" d="M417.281,320.872l1.888-0.16c0.426,0,0.64,0.102,0.64,0.303c0,0.203-0.203,0.375-0.608,0.514
		s-0.79,0.41-1.152,0.814c-0.363,0.406-0.651,0.865-0.864,1.377l-4.352,10.367c-0.021,0.064-0.198,0.49-0.528,1.281
		c-0.331,0.789-0.741,1.779-1.232,2.975s-0.928,2.234-1.312,3.121c-0.384,0.885-1.078,1.328-2.08,1.328
		c-0.405,0-0.779-0.107-1.12-0.32c-0.342-0.213-0.512-0.492-0.512-0.832c0-0.641,0.288-0.961,0.864-0.961l1.28,0.193
		c0.256,0,0.458-0.119,0.608-0.354c0.981-1.686,1.952-3.797,2.912-6.336c0.064-0.191,0.096-0.459,0.096-0.799
		c0-0.342-0.043-0.629-0.128-0.865l-3.712-9.375c-0.363-0.875-0.843-1.396-1.44-1.568c-0.491-0.17-0.736-0.357-0.736-0.561
		c0-0.201,0.213-0.303,0.64-0.303l2.336,0.16l2.432-0.16c0.427,0,0.64,0.117,0.64,0.352c0,0.299-0.31,0.533-0.928,0.703
		c-0.427,0.129-0.64,0.471-0.64,1.025c0,0.191,0.085,0.49,0.256,0.895l2.528,6.273c0.171,0.404,0.331,0.395,0.48-0.033l2.144-5.695
		c0.17-0.385,0.256-0.838,0.256-1.359c0-0.523-0.262-0.896-0.784-1.121c-0.523-0.223-0.784-0.453-0.784-0.688
		s0.213-0.352,0.64-0.352L417.281,320.872z"/>
	<path fill="#491D00" d="M422.305,328.231h-0.128c-0.128,0-0.192-0.064-0.192-0.191c0.106-1.131,0.277-1.707,0.512-1.729
		c2.73-0.385,4.778-0.65,6.144-0.801c0.17,0,0.256,0.064,0.256,0.193c-0.085,1.109-0.31,1.686-0.672,1.727
		C425.729,327.815,423.755,328.083,422.305,328.231z"/>
	<path fill="#491D00" d="M434.368,320.872l2.4-0.16c0.426,0,0.64,0.102,0.64,0.303c0,0.203-0.245,0.391-0.736,0.561
		c-0.427,0.129-0.64,0.566-0.64,1.312c0,0.342,0.042,0.629,0.128,0.863l2.368,6.369c0.085,0.234,0.149,0.352,0.192,0.352
		c0.042,0,0.107-0.107,0.192-0.32l2.304-5.92c0.149-0.385,0.224-0.768,0.224-1.152c0-0.854-0.267-1.354-0.8-1.504
		c-0.491-0.17-0.736-0.357-0.736-0.561c0-0.201,0.213-0.303,0.64-0.303l2.336,0.16c0.427,0,0.811-0.027,1.152-0.08
		s0.656-0.08,0.944-0.08s0.432,0.102,0.432,0.303c0,0.203-0.208,0.375-0.624,0.514c-0.416,0.139-0.816,0.41-1.2,0.814
		c-0.384,0.406-0.683,0.865-0.896,1.377l-2.496,6.016l-1.184,3.199c-0.469,0.961-0.757,1.441-0.864,1.441
		c-0.149,0-0.363-0.416-0.64-1.248l-3.904-9.984c-0.363-0.854-0.854-1.377-1.472-1.568c-0.491-0.17-0.736-0.357-0.736-0.561
		c0-0.201,0.213-0.303,0.64-0.303L434.368,320.872z"/>
	<path fill="#491D00" d="M450.048,323.624l0.032,0.447c0,0.191-0.304,0.428-0.912,0.703c-0.608,0.279-1.019,0.416-1.232,0.416
		c-0.213,0-0.32-0.096-0.32-0.287c0-0.725,0.368-1.412,1.104-2.064c0.736-0.65,1.552-1.215,2.448-1.695s1.723-0.721,2.48-0.721
		c0.757,0,1.392,0.277,1.904,0.832c0.512,0.555,0.757,1.227,0.736,2.016l-0.16,6.912v0.193c0,1.514,0.384,2.271,1.152,2.271
		c0.533,0,0.96-0.148,1.28-0.447c0.085-0.086,0.192-0.092,0.32-0.018c0.128,0.076,0.192,0.178,0.192,0.305v0.031
		c-0.128,0.279-0.459,0.615-0.992,1.01c-0.534,0.395-1.062,0.592-1.584,0.592c-0.523,0-0.96-0.141-1.312-0.416
		c-0.352-0.277-0.603-0.555-0.752-0.832c-0.15-0.277-0.246-0.416-0.288-0.416c-0.085,0-0.278,0.139-0.576,0.416
		c-0.299,0.277-0.741,0.555-1.328,0.832c-0.587,0.275-1.237,0.416-1.952,0.416c-0.715,0-1.366-0.268-1.952-0.801
		c-0.587-0.533-0.88-1.109-0.88-1.729c0-1.279,0.778-2.24,2.336-2.879l3.264-1.344c0.405-0.172,0.65-0.32,0.736-0.449
		c0.085-0.127,0.139-0.404,0.16-0.832l0.064-1.984v-0.062c0-0.555-0.176-1.035-0.528-1.441c-0.352-0.404-0.757-0.607-1.216-0.607
		c-0.459,0-0.891,0.111-1.296,0.336c-0.406,0.225-0.662,0.432-0.768,0.625C450.101,323.144,450.048,323.368,450.048,323.624z
		 M450.016,330.888c0,0.555,0.17,0.986,0.512,1.295c0.341,0.311,0.757,0.465,1.248,0.465s1.066-0.287,1.728-0.863
		c0.234-0.193,0.362-0.619,0.384-1.281l0.064-1.568c0.021-0.447-0.075-0.672-0.288-0.672c-0.149,0-0.299,0.033-0.448,0.098
		C451.083,329.085,450.016,329.927,450.016,330.888z"/>
	<path fill="#491D00" d="M464.351,333.606l-2.592,0.16c-0.427,0-0.64-0.1-0.64-0.303s0.299-0.4,0.896-0.592
		c0.597-0.193,0.949-0.391,1.056-0.592c0.106-0.203,0.16-0.4,0.16-0.594V315.56c0-1.344-0.491-2.123-1.472-2.336
		c-0.171-0.043-0.256-0.176-0.256-0.4s0.074-0.357,0.224-0.4c0.533-0.127,1.771-0.555,3.712-1.279h0.032l0.032-0.031
		c0.128,0,0.192,0.074,0.192,0.223c0,0.064-0.021,0.256-0.064,0.576c-0.107,0.832-0.16,2.092-0.16,3.775v16
		c0,0.428,0.128,0.705,0.384,0.832c0.277,0.129,0.634,0.268,1.072,0.416c0.437,0.15,0.656,0.326,0.656,0.529
		s-0.213,0.303-0.64,0.303L464.351,333.606z"/>
	<path fill="#491D00" d="M481.119,334.151l0.16-2.111v-0.193c-1.536,1.516-3.296,2.273-5.28,2.273c-1.088,0-1.968-0.332-2.64-0.992
		c-0.672-0.662-1.008-1.6-1.008-2.816v-6.496c0-0.854-0.459-1.461-1.376-1.824c-0.278-0.084-0.416-0.262-0.416-0.527
		c0-0.268,0.16-0.432,0.48-0.496c0.746-0.021,1.845-0.203,3.296-0.545c0.149-0.02,0.267,0.012,0.352,0.096
		c0.085,0.086,0.117,0.203,0.096,0.354c-0.128,0.98-0.192,1.803-0.192,2.463v6.24c0,0.768,0.277,1.445,0.832,2.031
		c0.555,0.588,1.173,0.881,1.856,0.881c1.237,0,2.133-0.213,2.688-0.641c0.96-0.703,1.44-1.504,1.44-2.398v-5.857
		c0-0.576-0.224-0.98-0.672-1.215s-0.917-0.357-1.408-0.369c-0.491-0.01-0.736-0.197-0.736-0.559c0-0.172,0.09-0.293,0.272-0.369
		c0.181-0.074,0.464-0.117,0.848-0.127c0.384-0.012,0.768-0.033,1.152-0.064c0.385-0.033,0.715-0.068,0.992-0.113
		c0.277-0.041,0.469-0.074,0.576-0.096c0.128,0,0.469-0.096,1.023-0.287h0.064c0.148,0,0.271,0.064,0.367,0.191
		c0.097,0.129,0.08,0.299-0.047,0.512c-0.129,0.215-0.192,0.928-0.192,2.145v6.783c0,1.473,0.192,2.209,0.575,2.209
		c0.662,0,1.152-0.031,1.473-0.096s0.48,0.064,0.48,0.383c0,0.32-0.15,0.48-0.448,0.48c-1.11,0.15-2.075,0.4-2.896,0.752
		c-0.822,0.352-1.312,0.529-1.473,0.529S481.119,334.237,481.119,334.151z"/>
	<path fill="#491D00" d="M495.231,320.423c1.28,0,2.288,0.268,3.024,0.801c0.735,0.533,1.104,1.258,1.104,2.176
		s-0.229,1.488-0.688,1.713c-0.459,0.223-1.052,0.336-1.776,0.336h-5.248c-0.3,0-0.507,0.068-0.624,0.207s-0.176,0.465-0.176,0.977
		c0,1.492,0.458,2.795,1.375,3.904c0.918,1.109,2.043,1.664,3.377,1.664c1.332,0,2.362-0.471,3.088-1.408
		c0.148-0.15,0.266-0.225,0.352-0.225c0.234,0,0.277,0.277,0.129,0.832c-0.15,0.555-0.678,1.146-1.584,1.775
		c-0.908,0.629-2.064,0.945-3.473,0.945s-2.635-0.641-3.68-1.92c-1.046-1.281-1.568-2.896-1.568-4.85
		c0-1.951,0.613-3.594,1.84-4.928C491.93,321.091,493.439,320.423,495.231,320.423z M497.344,323.384
		c0-0.586-0.268-1.061-0.801-1.424s-1.179-0.545-1.936-0.545c-0.758,0-1.473,0.305-2.145,0.912s-1.008,1.158-1.008,1.648
		c0,0.32,0.203,0.48,0.608,0.48h2.624c1.002,0,1.781-0.053,2.336-0.16C497.236,324.274,497.344,323.97,497.344,323.384z"/>
	<path fill="#491D00" d="M520.606,334.151l0.16-2.111v-0.193c-0.384,0.598-0.938,1.127-1.664,1.584
		c-0.726,0.459-1.567,0.689-2.528,0.689c-1.749,0-3.173-0.662-4.271-1.984c-1.1-1.322-1.648-2.896-1.648-4.721
		s0.661-3.445,1.984-4.863c1.322-1.418,3.061-2.129,5.216-2.129c0.427,0,0.923,0.08,1.488,0.24s0.912,0.32,1.04,0.48
		s0.229,0.24,0.304,0.24s0.112-0.256,0.112-0.768v-5.057c0-0.811-0.123-1.371-0.368-1.68s-0.667-0.529-1.265-0.656
		c-0.17-0.043-0.256-0.182-0.256-0.416s0.075-0.363,0.225-0.385c0.832-0.191,1.664-0.453,2.496-0.783s1.307-0.496,1.424-0.496
		s0.182,0.047,0.191,0.145c0.012,0.096,0.006,0.303-0.016,0.623c-0.128,1.217-0.191,2.475-0.191,3.775v14.465
		c0,1.387,0.224,2.08,0.672,2.08c0.66,0,1.152-0.031,1.472-0.096s0.479,0.064,0.479,0.383c0,0.32-0.148,0.48-0.447,0.48
		c-1.109,0.15-2.075,0.4-2.896,0.752s-1.312,0.529-1.472,0.529S520.606,334.237,520.606,334.151z M516.863,321.544
		c-0.769,0-1.559,0.342-2.369,1.023c-0.426,0.363-0.778,0.918-1.056,1.664s-0.416,1.654-0.416,2.721s0.177,2.01,0.528,2.832
		c0.352,0.82,0.795,1.424,1.328,1.807c1.002,0.727,1.951,1.088,2.848,1.088s1.633-0.275,2.208-0.832
		c0.576-0.555,0.864-1.227,0.864-2.016v-4.32c0-0.98-0.363-1.887-1.088-2.719C518.985,321.96,518.035,321.544,516.863,321.544z"/>
	<path fill="#491D00" d="M530.846,323.624l0.033,0.447c0,0.191-0.305,0.428-0.912,0.703c-0.608,0.279-1.02,0.416-1.232,0.416
		s-0.32-0.096-0.32-0.287c0-0.725,0.368-1.412,1.104-2.064c0.736-0.65,1.553-1.215,2.449-1.695c0.896-0.48,1.723-0.721,2.479-0.721
		s1.392,0.277,1.903,0.832c0.513,0.555,0.758,1.227,0.736,2.016l-0.16,6.912v0.193c0,1.514,0.385,2.271,1.152,2.271
		c0.533,0,0.96-0.148,1.28-0.447c0.085-0.086,0.192-0.092,0.319-0.018c0.129,0.076,0.192,0.178,0.192,0.305v0.031
		c-0.128,0.279-0.459,0.615-0.991,1.01c-0.534,0.395-1.062,0.592-1.584,0.592c-0.523,0-0.961-0.141-1.312-0.416
		c-0.352-0.277-0.604-0.555-0.752-0.832c-0.15-0.277-0.246-0.416-0.288-0.416c-0.085,0-0.278,0.139-0.576,0.416
		c-0.299,0.277-0.741,0.555-1.328,0.832c-0.587,0.275-1.237,0.416-1.952,0.416s-1.365-0.268-1.951-0.801
		c-0.588-0.533-0.881-1.109-0.881-1.729c0-1.279,0.779-2.24,2.336-2.879l3.265-1.344c0.405-0.172,0.65-0.32,0.735-0.449
		c0.086-0.127,0.139-0.404,0.16-0.832l0.064-1.984v-0.062c0-0.555-0.176-1.035-0.528-1.441c-0.353-0.404-0.757-0.607-1.216-0.607
		s-0.891,0.111-1.296,0.336s-0.661,0.432-0.769,0.625C530.899,323.144,530.846,323.368,530.846,323.624z M530.814,330.888
		c0,0.555,0.17,0.986,0.512,1.295c0.342,0.311,0.758,0.465,1.248,0.465s1.066-0.287,1.729-0.863
		c0.234-0.193,0.361-0.619,0.383-1.281l0.064-1.568c0.021-0.447-0.074-0.672-0.287-0.672c-0.15,0-0.3,0.033-0.449,0.098
		C531.881,329.085,530.814,329.927,530.814,330.888z"/>
	<path fill="#491D00" d="M547.357,334.12c-1.045,0-1.861-0.316-2.447-0.945c-0.587-0.629-0.88-1.584-0.88-2.863v-7.424
		c0-0.191-0.08-0.32-0.24-0.385s-0.485-0.096-0.976-0.096c-0.064,0-0.145-0.08-0.24-0.24s-0.145-0.287-0.145-0.383
		c0-0.098,0.053-0.178,0.16-0.24c0.49-0.15,0.992-0.459,1.504-0.928c0.512-0.471,0.928-0.908,1.248-1.312
		c0.32-0.406,0.512-0.607,0.576-0.607c0.299,0,0.448,0.105,0.448,0.318l-0.063,1.408c0,0.299,0.256,0.449,0.768,0.449h3.648
		c0.213,0,0.319,0.256,0.319,0.768s-0.106,0.768-0.319,0.768h-3.168c-0.576,0-0.934,0.043-1.072,0.129
		c-0.14,0.084-0.209,0.34-0.209,0.768v6.047c0,1.088,0.203,1.861,0.608,2.32s0.907,0.689,1.504,0.689c1.067,0,1.866-0.203,2.4-0.609
		c0.085-0.064,0.159-0.047,0.224,0.049s0.096,0.213,0.096,0.352s-0.17,0.363-0.512,0.672c-0.342,0.311-0.816,0.604-1.424,0.881
		C548.559,333.979,547.955,334.12,547.357,334.12z"/>
	<path fill="#491D00" d="M556.479,323.624l0.031,0.447c0,0.191-0.304,0.428-0.912,0.703c-0.607,0.279-1.019,0.416-1.231,0.416
		c-0.214,0-0.32-0.096-0.32-0.287c0-0.725,0.368-1.412,1.104-2.064c0.736-0.65,1.552-1.215,2.447-1.695
		c0.896-0.48,1.723-0.721,2.48-0.721c0.757,0,1.393,0.277,1.904,0.832s0.757,1.227,0.736,2.016l-0.16,6.912v0.193
		c0,1.514,0.383,2.271,1.151,2.271c0.533,0,0.96-0.148,1.28-0.447c0.085-0.086,0.191-0.092,0.32-0.018
		c0.127,0.076,0.191,0.178,0.191,0.305v0.031c-0.128,0.279-0.459,0.615-0.992,1.01s-1.061,0.592-1.584,0.592
		c-0.522,0-0.959-0.141-1.312-0.416c-0.353-0.277-0.603-0.555-0.752-0.832s-0.245-0.416-0.288-0.416
		c-0.086,0-0.277,0.139-0.576,0.416s-0.741,0.555-1.328,0.832c-0.587,0.275-1.237,0.416-1.951,0.416
		c-0.716,0-1.366-0.268-1.953-0.801c-0.586-0.533-0.879-1.109-0.879-1.729c0-1.279,0.777-2.24,2.336-2.879l3.264-1.344
		c0.404-0.172,0.65-0.32,0.736-0.449c0.084-0.127,0.139-0.404,0.16-0.832l0.063-1.984v-0.062c0-0.555-0.177-1.035-0.528-1.441
		c-0.352-0.404-0.758-0.607-1.216-0.607c-0.459,0-0.892,0.111-1.296,0.336c-0.406,0.225-0.662,0.432-0.768,0.625
		C556.531,323.144,556.479,323.368,556.479,323.624z M556.446,330.888c0,0.555,0.171,0.986,0.512,1.295
		c0.341,0.311,0.757,0.465,1.248,0.465s1.066-0.287,1.728-0.863c0.234-0.193,0.363-0.619,0.385-1.281l0.064-1.568
		c0.021-0.447-0.076-0.672-0.289-0.672c-0.148,0-0.299,0.033-0.447,0.098C557.513,329.085,556.446,329.927,556.446,330.888z"/>
	<path fill="#491D00" d="M571.678,311.335l-0.096,3.361v6.559c0,0.684,0.096,1.035,0.287,1.057c0.746-0.619,1.557-1.088,2.432-1.408
		s1.621-0.48,2.24-0.48c1.643,0,3.014,0.613,4.112,1.84c1.099,1.229,1.649,2.791,1.649,4.689s-0.609,3.566-1.825,5.008
		c-1.216,1.439-2.966,2.16-5.248,2.16c-0.79,0-1.761-0.156-2.912-0.465s-1.771-0.465-1.856-0.465c-0.085,0-0.234,0.098-0.447,0.289
		c-0.214,0.191-0.363,0.287-0.448,0.287s-0.182-0.037-0.288-0.111c-0.107-0.074-0.16-0.164-0.16-0.271v-0.16
		c0-0.129,0.021-0.283,0.064-0.465c0.043-0.18,0.074-0.389,0.096-0.623c0.043-0.512,0.064-1.121,0.064-1.824V315.56
		c0-1.344-0.502-2.123-1.504-2.336c-0.172-0.043-0.256-0.176-0.256-0.4s0.074-0.357,0.223-0.4c0.747-0.17,1.494-0.41,2.24-0.719
		c0.747-0.311,1.205-0.496,1.377-0.561h0.031l0.032-0.031C571.613,311.112,571.678,311.187,571.678,311.335z M572.894,332.103
		c0.874,0.684,1.903,1.025,3.088,1.025s2.133-0.539,2.849-1.617c0.714-1.076,1.071-2.377,1.071-3.904
		c0-1.523-0.396-2.885-1.185-4.078c-0.789-1.195-1.887-1.793-3.295-1.793c-0.513,0-1.088,0.096-1.729,0.287
		c-0.641,0.193-1.12,0.471-1.439,0.832c-0.449,0.471-0.672,1.377-0.672,2.721v3.873
		C571.582,330.536,572.019,331.421,572.894,332.103z"/>
	<path fill="#491D00" d="M588.541,323.624l0.033,0.447c0,0.191-0.305,0.428-0.912,0.703c-0.609,0.279-1.02,0.416-1.232,0.416
		s-0.32-0.096-0.32-0.287c0-0.725,0.369-1.412,1.104-2.064c0.736-0.65,1.553-1.215,2.449-1.695c0.895-0.48,1.723-0.721,2.479-0.721
		c0.758,0,1.393,0.277,1.904,0.832s0.758,1.227,0.736,2.016l-0.16,6.912v0.193c0,1.514,0.385,2.271,1.152,2.271
		c0.533,0,0.961-0.148,1.279-0.447c0.086-0.086,0.193-0.092,0.32-0.018c0.129,0.076,0.193,0.178,0.193,0.305v0.031
		c-0.129,0.279-0.459,0.615-0.992,1.01s-1.062,0.592-1.584,0.592c-0.523,0-0.961-0.141-1.312-0.416
		c-0.352-0.277-0.604-0.555-0.752-0.832c-0.15-0.277-0.246-0.416-0.289-0.416c-0.084,0-0.277,0.139-0.574,0.416
		c-0.301,0.277-0.742,0.555-1.328,0.832c-0.588,0.275-1.238,0.416-1.953,0.416s-1.365-0.268-1.951-0.801
		c-0.588-0.533-0.881-1.109-0.881-1.729c0-1.279,0.779-2.24,2.336-2.879l3.264-1.344c0.406-0.172,0.65-0.32,0.736-0.449
		c0.086-0.127,0.139-0.404,0.16-0.832l0.064-1.984v-0.062c0-0.555-0.176-1.035-0.527-1.441c-0.354-0.404-0.758-0.607-1.217-0.607
		s-0.891,0.111-1.297,0.336c-0.404,0.225-0.66,0.432-0.768,0.625C588.594,323.144,588.541,323.368,588.541,323.624z M588.51,330.888
		c0,0.555,0.17,0.986,0.512,1.295c0.342,0.311,0.758,0.465,1.248,0.465s1.066-0.287,1.729-0.863
		c0.234-0.193,0.361-0.619,0.383-1.281l0.064-1.568c0.021-0.447-0.074-0.672-0.287-0.672c-0.15,0-0.299,0.033-0.449,0.098
		C589.576,329.085,588.51,329.927,588.51,330.888z"/>
	<path fill="#491D00" d="M606.014,321.831c-0.406-0.383-0.891-0.576-1.457-0.576c-0.564,0-1.029,0.193-1.391,0.576
		c-0.363,0.385-0.545,0.832-0.545,1.344s0.182,0.982,0.545,1.408c0.361,0.428,0.676,0.73,0.943,0.912
		c0.266,0.182,0.672,0.443,1.217,0.785c0.543,0.34,0.975,0.629,1.295,0.863s0.693,0.656,1.121,1.264
		c0.426,0.607,0.639,1.232,0.639,1.873c0,2.559-1.535,3.84-4.607,3.84c-0.789,0-1.525-0.135-2.209-0.4
		c-0.682-0.268-1.076-0.518-1.184-0.752c-0.234-0.49-0.373-1.141-0.416-1.953c0-0.191,0.166-0.287,0.496-0.287
		s0.508,0.074,0.529,0.225c0.105,0.555,0.469,1.076,1.088,1.566c0.617,0.492,1.273,0.736,1.967,0.736s1.227-0.201,1.6-0.607
		c0.373-0.404,0.561-0.906,0.561-1.504s-0.191-1.104-0.576-1.52c-0.383-0.416-1.029-0.945-1.936-1.584
		c-0.906-0.641-1.633-1.266-2.176-1.873c-0.545-0.607-0.816-1.348-0.816-2.223s0.352-1.682,1.057-2.416
		c0.703-0.736,1.695-1.105,2.975-1.105c1.281,0,2.166,0.246,2.656,0.736c0.363,0.447,0.545,1.279,0.545,2.496
		c0,0.086-0.076,0.129-0.225,0.129s-0.363-0.08-0.639-0.24c-0.279-0.16-0.416-0.305-0.416-0.432
		C606.633,322.642,606.418,322.216,606.014,321.831z"/>
	<path fill="#491D00" d="M618.076,320.423c1.281,0,2.289,0.268,3.023,0.801c0.736,0.533,1.105,1.258,1.105,2.176
		s-0.23,1.488-0.689,1.713c-0.459,0.223-1.051,0.336-1.775,0.336h-5.248c-0.299,0-0.506,0.068-0.623,0.207s-0.176,0.465-0.176,0.977
		c0,1.492,0.457,2.795,1.375,3.904s2.043,1.664,3.377,1.664c1.332,0,2.361-0.471,3.088-1.408c0.148-0.15,0.266-0.225,0.352-0.225
		c0.234,0,0.277,0.277,0.127,0.832c-0.148,0.555-0.676,1.146-1.584,1.775c-0.906,0.629-2.062,0.945-3.471,0.945
		s-2.635-0.641-3.68-1.92c-1.047-1.281-1.568-2.896-1.568-4.85c0-1.951,0.613-3.594,1.84-4.928
		C614.775,321.091,616.285,320.423,618.076,320.423z M620.189,323.384c0-0.586-0.268-1.061-0.801-1.424s-1.18-0.545-1.936-0.545
		c-0.758,0-1.473,0.305-2.145,0.912s-1.008,1.158-1.008,1.648c0,0.32,0.203,0.48,0.607,0.48h2.625c1.002,0,1.781-0.053,2.336-0.16
		C620.082,324.274,620.189,323.97,620.189,323.384z"/>
	<path fill="#491D00" d="M636.221,342.632l-2.561,0.16c-0.447,0-0.672-0.102-0.672-0.305s0.299-0.4,0.896-0.592
		c0.596-0.191,0.949-0.389,1.055-0.592c0.107-0.203,0.16-0.4,0.16-0.592v-16.225c0-0.363-0.127-0.816-0.383-1.359
		c-0.256-0.545-0.619-0.869-1.088-0.977c-0.172-0.043-0.256-0.176-0.256-0.4c0-0.223,0.074-0.357,0.223-0.4
		c0.896-0.213,2.133-0.639,3.713-1.279l0.031-0.031h0.033c0.127,0,0.191,0.096,0.191,0.287l-0.16,1.92
		c0,0.172,0.01,0.268,0.031,0.289c0.406-0.406,1.146-0.859,2.225-1.361c1.078-0.5,2.064-0.752,2.961-0.752
		c1.578,0,2.848,0.609,3.807,1.824c0.961,1.217,1.441,2.625,1.441,4.225c0,1.963-0.711,3.729-2.129,5.295
		c-1.418,1.568-3.109,2.354-5.072,2.354c-0.469,0-1.045-0.102-1.729-0.305c-0.682-0.203-1.172-0.443-1.471-0.721
		c-0.086,0-0.129,0.545-0.129,1.633v5.984c0,0.32,0.123,0.549,0.369,0.688c0.244,0.139,0.426,0.229,0.543,0.271
		s0.293,0.086,0.529,0.129c0.768,0.191,1.15,0.426,1.15,0.703c0,0.193-0.234,0.289-0.703,0.289L636.221,342.632z M637.373,325.063
		l-0.033,2.049c0,1.023,0.027,2.043,0.08,3.055c0.053,1.014,0.336,1.76,0.848,2.24c0.514,0.48,1.473,0.721,2.881,0.721
		c0.811,0,1.664-0.395,2.561-1.184c0.447-0.406,0.826-0.998,1.135-1.777c0.311-0.777,0.465-1.707,0.465-2.783
		c0-1.078-0.154-2.021-0.465-2.832c-0.309-0.811-0.709-1.396-1.199-1.76c-0.918-0.619-1.852-0.928-2.801-0.928
		s-1.828,0.309-2.639,0.928C637.713,323.155,637.436,323.911,637.373,325.063z"/>
	<path fill="#491D00" d="M651.516,327.704c0-1.846,0.688-3.521,2.064-5.025c1.375-1.504,3.002-2.256,4.881-2.256
		c1.877,0,3.455,0.635,4.734,1.904c1.281,1.27,1.92,2.844,1.92,4.721s-0.635,3.525-1.902,4.943c-1.27,1.42-3.047,2.129-5.328,2.129
		c-1.814,0-3.328-0.609-4.545-1.824C652.123,331.079,651.516,329.55,651.516,327.704z M657.98,321.415
		c-2.561,0-3.84,1.846-3.84,5.537c0,1.643,0.426,3.088,1.279,4.336s1.898,1.871,3.137,1.871c1.6,0,2.697-0.586,3.295-1.76
		c0.428-0.832,0.641-2.068,0.641-3.713c0-1.643-0.428-3.098-1.279-4.367C660.359,322.05,659.281,321.415,657.98,321.415z"/>
	<path fill="#491D00" d="M687.229,320.872l1.855-0.16c0.426,0,0.641,0.102,0.641,0.303c0,0.203-0.246,0.391-0.736,0.561
		c-0.598,0.172-1.164,0.875-1.695,2.111l-4.385,10.496c-0.064,0.15-0.15,0.225-0.256,0.225c-0.107,0-0.203-0.074-0.289-0.225
		l-3.328-8.256c-0.127-0.32-0.266-0.309-0.416,0.033l-3.486,8.223c-0.086,0.15-0.178,0.225-0.273,0.225s-0.164-0.074-0.207-0.225
		l-4.449-11.039c-0.318-0.811-0.875-1.334-1.662-1.568c-0.492-0.17-0.736-0.357-0.736-0.561c0-0.201,0.213-0.303,0.639-0.303
		l2.336,0.16c1.621-0.107,2.576-0.16,2.865-0.16c0.287,0,0.432,0.102,0.432,0.303c0,0.203-0.246,0.391-0.736,0.561
		c-0.447,0.129-0.672,0.555-0.672,1.279c0,0.279,0.053,0.557,0.16,0.832l2.432,6.273c0.148,0.404,0.309,0.395,0.48-0.033
		l2.111-5.152c0.129-0.34,0.193-0.725,0.193-1.15c0-0.428-0.172-0.85-0.514-1.264c-0.34-0.416-0.73-0.684-1.168-0.801
		s-0.654-0.305-0.654-0.561c0-0.191,0.213-0.287,0.639-0.287l2.4,0.16l2.688-0.16c0.428,0,0.641,0.102,0.641,0.303
		c0,0.203-0.246,0.391-0.736,0.561c-0.725,0.234-1.088,0.619-1.088,1.152c0,0.277,0.074,0.598,0.225,0.959l2.4,6.178
		c0.17,0.404,0.34,0.416,0.512,0.031l2.432-5.664c0.148-0.32,0.225-0.672,0.225-1.057c0-0.383-0.119-0.725-0.354-1.023
		s-0.543-0.512-0.928-0.641c-0.383-0.127-0.576-0.293-0.576-0.496c0-0.201,0.213-0.303,0.641-0.303L687.229,320.872z"/>
	<path fill="#491D00" d="M697.98,320.423c1.279,0,2.287,0.268,3.023,0.801s1.104,1.258,1.104,2.176s-0.229,1.488-0.688,1.713
		c-0.459,0.223-1.051,0.336-1.775,0.336h-5.248c-0.299,0-0.508,0.068-0.625,0.207s-0.176,0.465-0.176,0.977
		c0,1.492,0.459,2.795,1.377,3.904c0.916,1.109,2.041,1.664,3.375,1.664s2.363-0.471,3.088-1.408
		c0.148-0.15,0.268-0.225,0.352-0.225c0.234,0,0.277,0.277,0.129,0.832c-0.15,0.555-0.678,1.146-1.584,1.775
		s-2.064,0.945-3.473,0.945s-2.635-0.641-3.68-1.92c-1.045-1.281-1.568-2.896-1.568-4.85c0-1.951,0.613-3.594,1.84-4.928
		C694.678,321.091,696.188,320.423,697.98,320.423z M700.092,323.384c0-0.586-0.268-1.061-0.801-1.424s-1.178-0.545-1.936-0.545
		s-1.471,0.305-2.145,0.912c-0.672,0.607-1.008,1.158-1.008,1.648c0,0.32,0.203,0.48,0.609,0.48h2.623
		c1.002,0,1.781-0.053,2.336-0.16C699.984,324.274,700.092,323.97,700.092,323.384z"/>
	<path fill="#491D00" d="M708.637,333.606l-2.592,0.16c-0.428,0-0.641-0.1-0.641-0.303s0.191-0.369,0.576-0.496
		c0.383-0.129,0.639-0.219,0.768-0.271c0.129-0.055,0.262-0.166,0.4-0.336c0.139-0.172,0.207-0.395,0.207-0.674v-6.879
		c0-1.344-0.438-2.111-1.311-2.305c-0.172-0.043-0.258-0.176-0.258-0.4c0-0.223,0.076-0.355,0.225-0.398
		c0.811-0.172,1.408-0.385,1.793-0.641c0.725-0.469,1.205-0.773,1.439-0.912s0.352-0.213,0.352-0.225c0-0.01,0.027-0.016,0.08-0.016
		s0.102,0.076,0.145,0.225c0,0.576-0.016,1.131-0.049,1.664c-0.031,0.533-0.031,0.799,0,0.799c0.033,0,0.092-0.053,0.176-0.16
		c0.299-0.361,0.492-0.574,0.576-0.639c1.025-0.918,2.006-1.377,2.945-1.377c0.447,0,0.814,0.096,1.104,0.289
		c0.287,0.191,0.432,0.447,0.432,0.768s-0.133,0.672-0.4,1.057c-0.266,0.383-0.518,0.576-0.752,0.576s-0.576-0.098-1.023-0.289
		s-0.779-0.287-0.992-0.287c-0.619,0-1.146,0.203-1.584,0.607c-0.438,0.406-0.656,1.1-0.656,2.08v6.305
		c0.021,0.574,0.598,1.033,1.729,1.375c0.49,0.172,0.736,0.357,0.736,0.561s-0.215,0.303-0.641,0.303L708.637,333.606z"/>
	<path fill="#491D00" d="M723.9,320.423c1.279,0,2.287,0.268,3.023,0.801s1.104,1.258,1.104,2.176s-0.229,1.488-0.688,1.713
		c-0.459,0.223-1.051,0.336-1.775,0.336h-5.248c-0.299,0-0.508,0.068-0.625,0.207s-0.176,0.465-0.176,0.977
		c0,1.492,0.459,2.795,1.377,3.904c0.916,1.109,2.041,1.664,3.375,1.664s2.363-0.471,3.088-1.408
		c0.148-0.15,0.268-0.225,0.352-0.225c0.234,0,0.277,0.277,0.129,0.832c-0.15,0.555-0.678,1.146-1.584,1.775
		s-2.064,0.945-3.473,0.945s-2.635-0.641-3.68-1.92c-1.045-1.281-1.568-2.896-1.568-4.85c0-1.951,0.613-3.594,1.84-4.928
		C720.598,321.091,722.107,320.423,723.9,320.423z M726.012,323.384c0-0.586-0.268-1.061-0.801-1.424s-1.178-0.545-1.936-0.545
		s-1.471,0.305-2.145,0.912c-0.672,0.607-1.008,1.158-1.008,1.648c0,0.32,0.203,0.48,0.609,0.48h2.623
		c1.002,0,1.781-0.053,2.336-0.16C725.904,324.274,726.012,323.97,726.012,323.384z"/>
	<path fill="#491D00" d="M741.467,334.151l0.16-2.111v-0.193c-0.385,0.598-0.939,1.127-1.664,1.584
		c-0.725,0.459-1.568,0.689-2.527,0.689c-1.75,0-3.174-0.662-4.273-1.984c-1.098-1.322-1.646-2.896-1.646-4.721
		s0.66-3.445,1.982-4.863c1.324-1.418,3.062-2.129,5.217-2.129c0.426,0,0.922,0.08,1.488,0.24c0.564,0.16,0.912,0.32,1.039,0.48
		c0.129,0.16,0.23,0.24,0.305,0.24s0.111-0.256,0.111-0.768v-5.057c0-0.811-0.123-1.371-0.367-1.68
		c-0.246-0.309-0.668-0.529-1.264-0.656c-0.172-0.043-0.256-0.182-0.256-0.416s0.074-0.363,0.223-0.385
		c0.832-0.191,1.664-0.453,2.496-0.783s1.307-0.496,1.424-0.496s0.182,0.047,0.193,0.145c0.01,0.096,0.004,0.303-0.016,0.623
		c-0.129,1.217-0.193,2.475-0.193,3.775v14.465c0,1.387,0.225,2.08,0.672,2.08c0.662,0,1.152-0.031,1.473-0.096
		s0.48,0.064,0.48,0.383c0,0.32-0.15,0.48-0.449,0.48c-1.109,0.15-2.074,0.4-2.895,0.752c-0.822,0.352-1.312,0.529-1.473,0.529
		S741.467,334.237,741.467,334.151z M737.723,321.544c-0.768,0-1.557,0.342-2.367,1.023c-0.428,0.363-0.779,0.918-1.057,1.664
		s-0.416,1.654-0.416,2.721s0.176,2.01,0.527,2.832c0.354,0.82,0.795,1.424,1.328,1.807c1.004,0.727,1.953,1.088,2.85,1.088
		c0.895,0,1.631-0.275,2.207-0.832c0.576-0.555,0.863-1.227,0.863-2.016v-4.32c0-0.98-0.361-1.887-1.088-2.719
		C739.846,321.96,738.896,321.544,737.723,321.544z"/>
	<path fill="#491D00" d="M760.539,311.335l-0.096,3.361v6.559c0,0.684,0.096,1.035,0.287,1.057c0.748-0.619,1.559-1.088,2.434-1.408
		c0.873-0.32,1.621-0.48,2.238-0.48c1.643,0,3.014,0.613,4.113,1.84c1.098,1.229,1.648,2.791,1.648,4.689s-0.609,3.566-1.824,5.008
		c-1.217,1.439-2.967,2.16-5.248,2.16c-0.791,0-1.76-0.156-2.912-0.465s-1.771-0.465-1.857-0.465c-0.084,0-0.234,0.098-0.447,0.289
		s-0.363,0.287-0.447,0.287c-0.086,0-0.182-0.037-0.289-0.111s-0.16-0.164-0.16-0.271v-0.16c0-0.129,0.021-0.283,0.064-0.465
		c0.043-0.18,0.074-0.389,0.096-0.623c0.043-0.512,0.064-1.121,0.064-1.824V315.56c0-1.344-0.502-2.123-1.504-2.336
		c-0.172-0.043-0.256-0.176-0.256-0.4s0.074-0.357,0.225-0.4c0.746-0.17,1.492-0.41,2.238-0.719
		c0.748-0.311,1.205-0.496,1.377-0.561h0.031l0.033-0.031C760.475,311.112,760.539,311.187,760.539,311.335z M761.756,332.103
		c0.873,0.684,1.904,1.025,3.088,1.025s2.133-0.539,2.848-1.617c0.715-1.076,1.072-2.377,1.072-3.904
		c0-1.523-0.395-2.885-1.184-4.078c-0.791-1.195-1.889-1.793-3.297-1.793c-0.512,0-1.088,0.096-1.729,0.287
		c-0.639,0.193-1.119,0.471-1.439,0.832c-0.447,0.471-0.672,1.377-0.672,2.721v3.873
		C760.443,330.536,760.881,331.421,761.756,332.103z"/>
	<path fill="#491D00" d="M785.34,320.872l1.887-0.16c0.428,0,0.641,0.102,0.641,0.303c0,0.203-0.203,0.375-0.607,0.514
		c-0.406,0.139-0.791,0.41-1.152,0.814c-0.363,0.406-0.652,0.865-0.865,1.377l-4.352,10.367c-0.021,0.064-0.197,0.49-0.527,1.281
		c-0.332,0.789-0.742,1.779-1.232,2.975s-0.928,2.234-1.312,3.121c-0.383,0.885-1.076,1.328-2.08,1.328
		c-0.404,0-0.779-0.107-1.119-0.32c-0.342-0.213-0.512-0.492-0.512-0.832c0-0.641,0.287-0.961,0.863-0.961l1.279,0.193
		c0.258,0,0.459-0.119,0.609-0.354c0.98-1.686,1.951-3.797,2.912-6.336c0.062-0.191,0.096-0.459,0.096-0.799
		c0-0.342-0.043-0.629-0.129-0.865l-3.711-9.375c-0.363-0.875-0.844-1.396-1.439-1.568c-0.492-0.17-0.736-0.357-0.736-0.561
		c0-0.201,0.213-0.303,0.639-0.303l2.336,0.16l2.434-0.16c0.426,0,0.639,0.117,0.639,0.352c0,0.299-0.309,0.533-0.928,0.703
		c-0.428,0.129-0.641,0.471-0.641,1.025c0,0.191,0.086,0.49,0.258,0.895l2.527,6.273c0.17,0.404,0.33,0.395,0.48-0.033l2.143-5.695
		c0.172-0.385,0.256-0.838,0.256-1.359c0-0.523-0.26-0.896-0.783-1.121c-0.523-0.223-0.783-0.453-0.783-0.688
		s0.213-0.352,0.639-0.352L785.34,320.872z"/>
	<path fill="#491D00" d="M804.25,320.423c1.281,0,2.289,0.268,3.023,0.801c0.736,0.533,1.105,1.258,1.105,2.176
		s-0.23,1.488-0.689,1.713c-0.459,0.223-1.051,0.336-1.775,0.336h-5.248c-0.299,0-0.506,0.068-0.623,0.207s-0.176,0.465-0.176,0.977
		c0,1.492,0.457,2.795,1.375,3.904s2.043,1.664,3.377,1.664c1.332,0,2.361-0.471,3.088-1.408c0.148-0.15,0.266-0.225,0.352-0.225
		c0.234,0,0.277,0.277,0.127,0.832c-0.148,0.555-0.676,1.146-1.584,1.775c-0.906,0.629-2.062,0.945-3.471,0.945
		s-2.635-0.641-3.68-1.92c-1.047-1.281-1.568-2.896-1.568-4.85c0-1.951,0.613-3.594,1.84-4.928
		C800.949,321.091,802.459,320.423,804.25,320.423z M806.363,323.384c0-0.586-0.268-1.061-0.801-1.424s-1.18-0.545-1.936-0.545
		c-0.758,0-1.473,0.305-2.145,0.912s-1.008,1.158-1.008,1.648c0,0.32,0.203,0.48,0.607,0.48h2.625c1.002,0,1.781-0.053,2.336-0.16
		C806.256,324.274,806.363,323.97,806.363,323.384z"/>
	<path fill="#491D00" d="M814.586,333.606l-2.592,0.16c-0.426,0-0.639-0.1-0.639-0.303s0.297-0.4,0.895-0.592
		c0.598-0.193,0.949-0.391,1.057-0.592c0.105-0.203,0.16-0.4,0.16-0.594V315.56c0-1.344-0.492-2.123-1.473-2.336
		c-0.17-0.043-0.256-0.176-0.256-0.4s0.074-0.357,0.225-0.4c0.533-0.127,1.77-0.555,3.711-1.279h0.033l0.031-0.031
		c0.129,0,0.191,0.074,0.191,0.223c0,0.064-0.021,0.256-0.062,0.576c-0.107,0.832-0.16,2.092-0.16,3.775v16
		c0,0.428,0.127,0.705,0.383,0.832c0.277,0.129,0.635,0.268,1.072,0.416c0.438,0.15,0.656,0.326,0.656,0.529
		s-0.213,0.303-0.641,0.303L814.586,333.606z"/>
	<path fill="#491D00" d="M823.865,333.606l-2.592,0.16c-0.426,0-0.641-0.1-0.641-0.303s0.299-0.4,0.896-0.592
		c0.598-0.193,0.949-0.391,1.057-0.592c0.105-0.203,0.16-0.4,0.16-0.594v-6.943c0-1.344-0.502-2.123-1.504-2.336
		c-0.172-0.043-0.256-0.176-0.256-0.4c0-0.223,0.074-0.357,0.223-0.4c1.045-0.256,2.133-0.756,3.266-1.504
		c0.34-0.213,0.531-0.318,0.574-0.318c0.15,0,0.225,0.053,0.225,0.16c-0.191,1.963-0.287,3.402-0.287,4.318v7.424
		c0,0.428,0.127,0.705,0.383,0.832c0.277,0.129,0.635,0.268,1.072,0.416c0.438,0.15,0.656,0.326,0.656,0.529
		s-0.213,0.303-0.641,0.303L823.865,333.606z M822.49,316.774c-0.299-0.297-0.449-0.682-0.449-1.15s0.15-0.854,0.449-1.152
		s0.682-0.449,1.152-0.449c0.469,0,0.852,0.15,1.15,0.449s0.459,0.693,0.48,1.184c-0.021,0.447-0.182,0.822-0.48,1.119
		c-0.299,0.301-0.682,0.461-1.15,0.48C823.172,317.235,822.789,317.075,822.49,316.774z"/>
	<path fill="#491D00" d="M839.227,333.671l-2.336,0.033c-0.492,0-0.736-0.098-0.736-0.289c0-0.256,0.299-0.48,0.895-0.672
		c0.598-0.191,0.896-0.438,0.896-0.736c0-0.17-0.064-0.361-0.191-0.576l-1.729-2.943c-0.107-0.17-0.191-0.203-0.256-0.096
		l-2.145,3.137c-0.105,0.17-0.16,0.41-0.16,0.719c0,0.311,0.15,0.508,0.449,0.592c0.49,0.172,0.736,0.357,0.736,0.561
		s-0.246,0.305-0.736,0.305l-1.697-0.064l-2.143,0.16c-0.428,0-0.641-0.096-0.641-0.289c0-0.256,0.262-0.457,0.783-0.607
		c0.523-0.148,1.223-0.746,2.098-1.791l2.719-3.393c0.193-0.234,0.213-0.48,0.064-0.736l-2.592-4.031
		c-0.447-0.748-0.928-1.189-1.439-1.328s-0.77-0.336-0.77-0.592c0-0.193,0.246-0.289,0.736-0.289l2.529,0.129l1.631-0.064
		c0.49,0,0.736,0.09,0.736,0.271s-0.207,0.342-0.623,0.48s-0.625,0.32-0.625,0.543c0,0.225,0.139,0.561,0.416,1.01l1.279,1.982
		c0.107,0.193,0.193,0.246,0.256,0.16l1.568-2.4c0.172-0.234,0.256-0.473,0.256-0.719s-0.191-0.432-0.576-0.561
		c-0.383-0.127-0.574-0.293-0.574-0.496s0.244-0.305,0.734-0.305l1.602,0.098c0.447,0,0.863-0.027,1.248-0.08
		c0.383-0.053,0.713-0.08,0.99-0.08s0.416,0.102,0.416,0.303c0,0.203-0.244,0.391-0.734,0.561c-1.025,0.299-1.783,0.801-2.273,1.504
		l-2.08,2.943c-0.084,0.129-0.074,0.268,0.033,0.416l3.104,5.152c0.447,0.748,0.928,1.189,1.439,1.328s0.77,0.336,0.77,0.592
		c0,0.193-0.215,0.289-0.641,0.289L839.227,333.671z"/>
	<path fill="#491D00" d="M848.281,333.606l-2.592,0.16c-0.426,0-0.641-0.1-0.641-0.303s0.299-0.4,0.896-0.592
		c0.598-0.193,0.949-0.391,1.057-0.592c0.105-0.203,0.16-0.4,0.16-0.594v-6.943c0-1.344-0.502-2.123-1.504-2.336
		c-0.172-0.043-0.256-0.176-0.256-0.4c0-0.223,0.074-0.357,0.223-0.4c1.045-0.256,2.133-0.756,3.266-1.504
		c0.34-0.213,0.531-0.318,0.574-0.318c0.15,0,0.225,0.053,0.225,0.16c-0.191,1.963-0.287,3.402-0.287,4.318v7.424
		c0,0.428,0.127,0.705,0.383,0.832c0.277,0.129,0.635,0.268,1.072,0.416c0.438,0.15,0.656,0.326,0.656,0.529
		s-0.213,0.303-0.641,0.303L848.281,333.606z M846.906,316.774c-0.299-0.297-0.449-0.682-0.449-1.15s0.15-0.854,0.449-1.152
		s0.682-0.449,1.152-0.449c0.469,0,0.852,0.15,1.15,0.449s0.459,0.693,0.48,1.184c-0.021,0.447-0.182,0.822-0.48,1.119
		c-0.299,0.301-0.682,0.461-1.15,0.48C847.588,317.235,847.205,317.075,846.906,316.774z"/>
	<path fill="#491D00" d="M857.689,333.606l-2.592,0.16c-0.428,0-0.641-0.1-0.641-0.303s0.193-0.369,0.576-0.496
		c0.385-0.129,0.641-0.219,0.77-0.271c0.127-0.055,0.26-0.166,0.398-0.336c0.139-0.172,0.209-0.395,0.209-0.674v-6.879
		c0-1.344-0.438-2.111-1.312-2.305c-0.17-0.043-0.256-0.176-0.256-0.4c0-0.223,0.074-0.355,0.225-0.398
		c0.811-0.172,1.408-0.385,1.791-0.641c0.725-0.469,1.205-0.773,1.439-0.912c0.236-0.139,0.354-0.213,0.354-0.225
		c0-0.01,0.025-0.016,0.08-0.016c0.053,0,0.1,0.076,0.143,0.225c0,0.576-0.016,1.131-0.047,1.664c-0.033,0.533-0.033,0.799,0,0.799
		c0.031,0,0.09-0.053,0.176-0.16c0.299-0.361,0.49-0.574,0.576-0.639c1.023-0.918,2.004-1.377,2.943-1.377
		c0.449,0,0.816,0.096,1.104,0.289c0.289,0.191,0.434,0.447,0.434,0.768s-0.135,0.672-0.4,1.057
		c-0.268,0.383-0.518,0.576-0.752,0.576c-0.236,0-0.576-0.098-1.025-0.289c-0.447-0.191-0.777-0.287-0.99-0.287
		c-0.619,0-1.148,0.203-1.584,0.607c-0.438,0.406-0.656,1.1-0.656,2.08v6.305c0.02,0.574,0.596,1.033,1.727,1.375
		c0.492,0.172,0.736,0.357,0.736,0.561s-0.213,0.303-0.639,0.303L857.689,333.606z"/>
</g>
<g>
	<g>
		<g>
			<g>
				<polygon fill="#FF6A00" points="15.258,84.044 15.258,176.657 92.518,253.916 166.515,179.925 166.515,84.044 134.498,116.059 
					54.409,116.059 				"/>
			</g>
			<g>
				<path fill="#491D00" d="M92.518,260.987l-82.26-82.259V73.496l45.935,37.562h76.233l39.088-39.085v110.022L92.518,260.987z
					 M20.258,174.586l72.26,72.259l68.997-68.991V96.114l-24.947,24.944H52.625L20.258,94.592V174.586z"/>
			</g>
		</g>
	</g>
	<g>
		<g>
			<g>
				<polygon fill="#FFFFFF" points="24.205,183.536 61.743,183.149 78.76,238.091 				"/>
			</g>
			<g>
				<path fill="#491D00" d="M58.069,188.188l9.936,32.076l-31.851-31.851L58.069,188.188 M65.417,178.111l-53.16,0.548l77.26,77.259
					L65.417,178.111L65.417,178.111z"/>
			</g>
		</g>
	</g>
	<g>
		<g>
			<g>
				<polygon fill="#FFFFFF" points="121.078,186.152 158.616,186.539 104.061,241.094 				"/>
			</g>
			<g>
				<path fill="#491D00" d="M124.752,191.19l21.916,0.226l-31.851,31.851L124.752,191.19 M117.404,181.114l-24.1,77.807
					l77.26-77.259L117.404,181.114L117.404,181.114z"/>
			</g>
		</g>
	</g>
	<g>
		<g>
			<g>
				<polygon fill="#FF6A00" points="218.884,402.406 194.455,309.722 140.63,309.722 111.534,402.406 102.212,402.406 
					102.212,317.623 80.877,317.623 80.877,402.406 73.358,402.406 34.411,303.307 34.411,226.095 91.518,283.196 166.313,208.402 
					212.895,233.876 228.875,260.853 228.875,402.406 				"/>
			</g>
			<g>
				<path fill="#491D00" d="M167.111,213.968l42.541,23.265l14.723,24.854v135.82h-2.023l-22.662-85.979l-1.768-6.706h-6.935
					h-47.053h-6.608l-1.979,6.305l-27.117,86.38h-1.518v-75.783v-9h-9H85.377h-9v9v75.662l-37.466-95.331v-65.496l46.243,46.238
					l6.364,6.363l6.364-6.363L167.111,213.968 M165.515,202.837l-73.997,73.995l-61.606-61.601v88.928l40.38,102.747h15.085v-84.783
					h12.335v84.783h17.126l29.096-92.685h47.053l24.43,92.685h17.958V259.62l-17.238-29.1L165.515,202.837L165.515,202.837z"/>
			</g>
		</g>
	</g>
	<g>
		<g>
			<g>
				<polygon fill="#FF6A00" points="228.38,223.065 241.617,190.828 187.059,139.659 187.059,71.278 228.585,34.447 326.972,18.05 
					331.281,26.667 272.353,67.356 272.353,111.446 311.244,185.761 239.729,243.142 				"/>
			</g>
			<g>
				<path fill="#491D00" d="M324.151,23.589l0.716,1.431L271.67,61.752l-4.318,2.981v5.247v40.236v2.458l1.14,2.179l36.415,69.582
					l-63.72,51.125l-7.26-12.843l11.005-26.803l2.618-6.376l-5.028-4.716l-50.464-47.33V73.526l38.767-34.384L324.151,23.589
					 M329.792,12.511L226.344,29.752l-44.285,39.277v72.795l53.623,50.293l-12.849,31.295l15.438,27.31l79.311-63.635l-40.229-76.87
					V69.98l60.343-41.666L329.792,12.511L329.792,12.511z"/>
			</g>
		</g>
	</g>
	<g>
		<g>
			<g>
				<polygon fill="#FFFFFF" points="257.101,78.805 229.897,81.57 232.795,60.654 196.31,63.073 228.585,34.447 326.972,18.05 
					331.281,26.667 272.353,67.356 272.353,96.663 				"/>
			</g>
			<g>
				<path fill="#491D00" d="M324.151,23.589l0.716,1.431L271.67,61.752l-4.318,2.981v5.247v13.129l-4.748-5.56l-3.403-3.984
					l-5.212,0.529l-18.265,1.857l1.182-8.529l1.686-12.163l-12.252,0.812l-15.779,1.047l20.267-17.976L324.151,23.589
					 M329.792,12.511L226.344,29.752l-44.285,39.277L227,66.05l-2.929,21.139L255,84.044l22.353,26.173V69.98l60.343-41.666
					L329.792,12.511L329.792,12.511z"/>
			</g>
		</g>
	</g>
	<g>
		<polygon fill="#491D00" points="227,400.05 221,400.05 213,363.05 227,363.05 		"/>
	</g>
	<g>
		<polygon fill="#491D00" points="113,400.05 103,400.05 103,363.05 123,363.05 		"/>
	</g>
	<g>
		<polygon fill="#491D00" points="80,400.05 74,400.05 60,363.05 80,363.05 		"/>
	</g>
	<g>
		<polygon fill="#491D00" points="93.798,255.05 89.925,255.05 75.723,239.05 108,239.05 		"/>
	</g>
</g>
</svg>
